<?xml version="1.0" standalone="no"?>
<!DOCTYPE svg PUBLIC "-//W3C//DTD SVG 20010904//EN"
 "http://www.w3.org/TR/2001/REC-SVG-20010904/DTD/svg10.dtd">
<svg version="1.0" xmlns="http://www.w3.org/2000/svg"
 width="1024.000000pt" height="1024.000000pt" viewBox="0 0 1024.000000 1024.000000"
 preserveAspectRatio="xMidYMid meet">

<g transform="translate(0.000000,1024.000000) scale(0.100000,-0.100000)"
fill="#000000" stroke="none">
<path d="M2269 6216 c-30 -13 -202 -90 -384 -173 -181 -83 -354 -161 -383
-173 -35 -15 -58 -33 -67 -51 -13 -24 -15 -119 -15 -596 0 -639 -5 -591 78
-632 24 -12 123 -57 220 -100 97 -43 267 -119 377 -169 110 -50 212 -94 227
-97 26 -7 82 16 388 158 41 19 147 67 235 107 200 91 268 125 289 145 14 15
16 76 16 593 0 491 -2 581 -15 598 -13 20 -114 66 -650 302 -88 39 -183 80
-211 90 l-51 20 -54 -22z m352 -275 c162 -71 319 -141 349 -154 l55 -25 -107
-51 -106 -51 -356 152 c-321 136 -384 167 -343 168 6 1 55 21 107 45 52 25 98
45 101 45 4 0 139 -58 300 -129z m-361 -243 c129 -55 256 -109 283 -121 26
-11 47 -22 47 -26 0 -7 -209 -101 -224 -101 -5 0 -156 63 -335 139 -179 77
-342 146 -361 154 l-35 14 113 56 113 56 82 -36 c45 -19 188 -80 317 -135z
m838 -520 l-3 -452 -335 -152 c-184 -84 -341 -153 -347 -153 -10 -1 -13 93
-13 437 l0 437 113 52 112 51 3 -144 c2 -113 5 -144 16 -144 7 0 57 20 110 45
l96 44 2 161 3 160 115 54 c63 30 118 54 123 55 4 1 6 -202 5 -451z m-1130
262 l282 -124 0 -443 c0 -244 -3 -443 -6 -443 -4 0 -144 61 -312 136 -169 75
-317 140 -329 145 l-23 9 0 445 0 445 53 -23 c28 -13 179 -79 335 -147z"/>
<path d="M3722 6062 c-123 -44 -180 -160 -136 -273 23 -57 78 -93 198 -130
128 -40 156 -59 156 -105 0 -41 -36 -83 -72 -85 -90 -6 -144 17 -168 70 -13
30 -17 32 -50 27 -19 -3 -50 -6 -67 -6 -28 0 -33 -4 -33 -22 1 -39 36 -103 74
-135 80 -66 244 -85 341 -39 115 53 165 175 116 282 -28 60 -73 90 -198 130
-62 20 -124 45 -138 56 -46 36 -24 99 43 119 74 22 162 -26 162 -87 0 -23 3
-24 64 -24 79 0 88 9 75 72 -13 58 -65 120 -121 143 -66 26 -182 30 -246 7z"/>
<path d="M4205 6055 c-50 -49 -19 -115 55 -115 75 0 109 76 54 119 -36 28 -79
27 -109 -4z"/>
<path d="M7963 6054 c-3 -7 -3 -63 0 -124 l4 -111 -26 25 c-91 84 -251 41
-314 -84 -96 -193 8 -420 194 -420 56 0 80 10 122 48 l27 26 0 -32 0 -32 70 0
70 0 -2 358 -3 357 -69 1 c-46 0 -70 -4 -73 -12z m-67 -299 c62 -26 90 -124
62 -217 -33 -112 -177 -101 -209 15 -22 82 8 178 64 202 40 18 41 18 83 0z"/>
<path d="M5085 6012 c-75 -7 -75 -6 -75 -77 l0 -65 -45 0 -45 0 1 -50 2 -50
42 0 43 0 4 -169 c3 -153 5 -172 24 -198 30 -40 80 -63 139 -62 98 2 114 15
100 85 -6 33 -8 34 -50 34 -62 0 -66 13 -63 172 l3 133 55 0 55 0 3 53 3 52
-43 1 c-88 2 -82 -3 -79 70 3 73 -2 78 -74 71z"/>
<path d="M4555 5879 c-113 -28 -176 -138 -127 -221 22 -39 87 -71 185 -93 62
-14 81 -23 94 -42 16 -25 16 -26 -11 -49 -46 -40 -145 -24 -161 26 -7 21 -42
26 -104 14 -35 -7 -40 -28 -16 -74 49 -94 226 -132 343 -74 73 36 97 73 97
150 0 48 -5 67 -20 84 -27 31 -87 57 -174 75 -88 18 -111 30 -111 55 0 51 103
68 146 25 21 -22 34 -25 91 -25 l65 0 -6 28 c-17 71 -87 118 -186 126 -36 3
-83 1 -105 -5z"/>
<path d="M5529 5884 c-15 -3 -51 -19 -80 -37 -43 -26 -59 -44 -84 -91 -27 -53
-30 -69 -30 -150 0 -74 4 -99 22 -132 45 -85 131 -133 236 -134 105 0 175 39
218 121 l18 37 -44 11 c-63 16 -93 14 -99 -7 -10 -31 -63 -55 -108 -49 -56 8
-87 38 -102 100 l-6 27 180 0 180 0 0 54 c0 102 -41 177 -121 221 -49 26 -124
38 -180 29z m95 -114 c26 -9 66 -63 66 -87 0 -10 -28 -13 -105 -13 -67 0 -105
4 -105 10 0 24 32 70 58 84 32 18 52 19 86 6z"/>
<path d="M6134 5880 c-32 -10 -83 -54 -85 -74 -1 -6 -5 7 -8 29 -4 30 -11 40
-23 39 -10 0 -40 -1 -68 -2 l-50 -2 0 -260 0 -260 75 0 75 0 0 171 c0 209 11
238 92 239 28 0 41 -6 57 -26 19 -25 21 -40 21 -205 l0 -179 74 0 75 0 3 181
3 181 28 24 c16 13 41 24 57 24 80 0 90 -26 90 -240 l0 -171 73 3 72 3 0 190
c0 131 -4 202 -13 228 -42 117 -195 152 -303 67 -34 -27 -36 -27 -47 -9 -26
42 -134 68 -198 49z"/>
<path d="M6962 5879 c-85 -16 -152 -79 -152 -141 0 -27 1 -28 59 -28 54 0 62
3 94 35 38 38 63 43 106 20 30 -15 41 -33 41 -69 0 -20 -7 -22 -105 -33 -161
-17 -212 -52 -221 -154 -9 -104 58 -169 174 -169 56 0 128 29 139 55 9 24 21
17 25 -12 3 -27 5 -28 71 -31 l67 -3 0 183 c0 103 -5 200 -11 223 -29 103
-143 153 -287 124z m148 -325 c0 -19 -5 -44 -10 -55 -24 -44 -122 -65 -154
-33 -22 21 -20 67 3 88 17 16 81 32 139 35 19 1 22 -4 22 -35z"/>
<path d="M8390 5881 c-120 -25 -192 -127 -194 -271 -2 -125 51 -211 157 -255
51 -21 162 -19 212 4 46 21 99 74 114 113 10 26 9 27 -40 37 -68 15 -77 14
-89 -9 -14 -26 -61 -50 -99 -50 -33 0 -87 40 -95 70 -4 11 -9 29 -12 40 -5 19
1 20 173 22 l178 3 -4 64 c-5 102 -46 173 -120 210 -42 22 -131 33 -181 22z
m108 -115 c26 -13 42 -37 56 -78 5 -16 -4 -18 -105 -18 l-109 0 20 40 c32 62
85 84 138 56z"/>
<path d="M4182 5613 l3 -258 73 -3 72 -3 0 261 0 260 -75 0 -75 0 2 -257z"/>
<path d="M7483 5020 c-46 -19 -55 -69 -18 -105 47 -48 135 -22 135 39 0 51
-65 88 -117 66z"/>
<path d="M3580 4660 l0 -360 75 0 75 0 0 360 0 360 -75 0 -75 0 0 -360z"/>
<path d="M6168 4953 c-15 -4 -18 -16 -18 -64 l0 -59 -35 0 -35 0 0 -60 0 -60
35 0 35 0 0 -152 c0 -183 14 -228 77 -254 34 -15 175 -18 185 -4 3 3 2 29 0
58 l-4 52 -43 0 c-23 0 -47 6 -53 13 -5 6 -12 74 -14 149 l-3 137 60 3 60 3 3
58 3 57 -61 0 c-41 0 -60 4 -61 13 -1 6 -1 36 0 65 l0 52 -57 -1 c-31 -1 -65
-3 -74 -6z"/>
<path d="M4066 4826 c-21 -8 -51 -27 -67 -42 l-29 -28 0 38 0 37 -67 -3 c-47
-2 -68 -7 -67 -15 1 -7 2 -125 3 -263 l1 -250 70 0 70 0 0 155 c0 162 8 204
46 236 47 40 129 25 153 -27 7 -15 11 -89 11 -194 l0 -170 71 0 70 0 -3 213
-3 214 -28 36 c-15 21 -42 44 -59 53 -43 22 -125 27 -172 10z"/>
<path d="M5155 4831 c-132 -24 -215 -147 -202 -302 13 -153 111 -241 268 -241
67 0 127 19 162 50 22 19 67 87 67 100 0 5 -29 12 -64 16 -62 6 -65 5 -94 -24
-57 -56 -156 -35 -186 40 -9 22 -16 45 -16 50 0 6 71 10 186 10 l187 0 -6 53
c-8 78 -26 131 -58 171 -51 61 -152 94 -244 77z m95 -116 c35 -18 60 -52 60
-82 0 -23 -2 -23 -105 -21 -78 2 -105 6 -105 16 0 28 33 74 63 87 41 18 52 18
87 0z"/>
<path d="M5775 4831 c-43 -11 -72 -28 -89 -53 -16 -22 -16 -22 -16 15 l0 37
-70 0 -70 0 0 -265 0 -265 70 0 70 0 0 161 c0 187 10 222 69 246 28 12 43 13
73 4 61 -19 68 -43 68 -241 l0 -170 76 0 76 0 -4 203 c-4 222 -8 240 -68 290
-49 41 -115 55 -185 38z"/>
<path d="M6639 4826 c-81 -21 -139 -82 -139 -145 0 -19 6 -21 64 -21 55 0 64
3 69 20 3 11 21 27 41 35 64 27 126 -3 126 -60 0 -28 -4 -33 -31 -39 -17 -3
-55 -6 -83 -6 -71 0 -121 -16 -161 -51 -98 -86 -57 -240 72 -267 77 -17 145 0
187 47 22 24 34 27 33 9 -1 -46 1 -48 68 -48 l65 0 0 188 c0 103 -5 203 -10
224 -28 98 -166 151 -301 114z m165 -324 c-4 -71 -74 -123 -139 -102 -35 12
-45 26 -45 66 0 30 35 53 97 64 78 13 88 10 87 -28z"/>
<path d="M7280 4830 c-21 -5 -48 -23 -67 -46 l-33 -37 0 41 0 42 -70 0 -70 0
0 -265 0 -265 75 0 75 0 0 160 c0 92 5 169 11 183 15 34 47 51 108 57 l53 5 1
55 c1 82 -5 88 -83 70z"/>
<path d="M7885 4834 c-92 -23 -151 -67 -187 -138 -27 -52 -35 -157 -18 -227
16 -68 92 -148 158 -167 111 -33 233 -4 297 71 113 132 72 363 -78 436 -42 21
-135 34 -172 25z m96 -129 c46 -24 69 -70 69 -138 0 -104 -43 -162 -121 -162
-124 0 -162 229 -50 298 33 21 64 21 102 2z"/>
<path d="M4380 4818 c0 -7 21 -69 46 -138 25 -69 66 -182 91 -252 l45 -128 93
0 93 0 15 43 c8 23 52 141 96 262 45 121 81 221 81 223 0 2 -35 2 -77 0 l-77
-3 -61 -187 c-33 -103 -63 -189 -66 -192 -3 -3 -34 81 -70 187 l-64 192 -72 3
c-55 2 -73 0 -73 -10z"/>
<path d="M7450 4565 l0 -265 70 0 70 0 0 265 0 265 -70 0 -70 0 0 -265z"/>
</g>
</svg>
